<svg xmlns="http://www.w3.org/2000/svg" version="1.1" xmlns:xlink="http://www.w3.org/1999/xlink" xmlns:svgjs="http://svgjs.com/svgjs" width="1440" height="560" preserveAspectRatio="none" viewBox="0 0 1440 560"><g mask="url(&quot;#SvgjsMask1314&quot;)" fill="none"><rect width="1440" height="560" x="0" y="0" fill="url(#SvgjsLinearGradient1315)"></rect><path d="M1488 560L0 560 L0 367.69Q27.41 323.1, 72 350.51Q83.22 289.73, 144 300.94Q170.73 255.67, 216 282.4Q270.74 265.14, 288 319.88Q376.94 288.82, 408 377.77Q427.35 325.12, 480 344.47Q512.28 256.75, 600 289.04Q669.84 238.88, 720 308.72Q784.96 301.68, 792 366.64Q805.67 308.31, 864 321.98Q930.63 268.61, 984 335.23Q1064.3 295.53, 1104 375.84Q1113.61 313.45, 1176 323.06Q1216.84 243.89, 1296 284.73Q1363.43 232.17, 1416 299.6Q1474.28 285.88, 1488 344.17z" fill="#182f5d"></path><path d="M1464 560L0 560 L0 417.58Q21.53 367.11, 72 388.63Q101.82 346.45, 144 376.27Q229.88 342.15, 264 428.04Q285.47 329.51, 384 350.98Q458.7 305.68, 504 380.38Q533.01 337.39, 576 366.41Q663.93 334.35, 696 422.28Q750.65 356.93, 816 411.59Q864.87 388.46, 888 437.33Q918.85 348.17, 1008 379.02Q1054.87 353.89, 1080 400.76Q1114.94 315.7, 1200 350.65Q1272.13 302.78, 1320 374.92Q1376.68 359.61, 1392 416.29Q1438.17 390.47, 1464 436.64z" fill="#25467d"></path><path d="M1560 560L0 560 L0 476.24Q51.4 455.64, 72 507.04Q98.98 414.02, 192 441.01Q236.96 413.97, 264 458.93Q320.35 443.28, 336 499.63Q359.6 451.23, 408 474.83Q448.71 395.54, 528 436.25Q582.88 371.13, 648 426.01Q715.4 421.41, 720 488.81Q760.81 409.62, 840 450.42Q863.33 401.75, 912 425.08Q998.75 391.82, 1032 478.57Q1077.2 451.77, 1104 496.97Q1124.1 445.07, 1176 465.17Q1229.64 398.81, 1296 452.45Q1353.71 438.16, 1368 495.87Q1411.2 467.07, 1440 510.28Q1486.66 436.94, 1560 483.6z" fill="#356cb1"></path><path d="M1488 560L0 560 L0 546Q26.46 500.46, 72 526.92Q126.55 461.47, 192 516.02Q247.57 499.59, 264 555.16Q309.69 528.85, 336 574.54Q350.63 517.17, 408 531.81Q432.34 484.15, 480 508.49Q574.56 483.05, 600 577.6Q611.26 516.86, 672 528.12Q692.55 476.67, 744 497.22Q818.43 499.65, 816 574.08Q857.57 543.65, 888 585.22Q899.64 524.87, 960 536.51Q974.83 479.34, 1032 494.17Q1078.52 468.69, 1104 515.2Q1197.21 488.41, 1224 581.62Q1265.03 502.65, 1344 543.68Q1360.08 487.76, 1416 503.84Q1462.5 478.34, 1488 524.83z" fill="rgba(228, 215, 215, 1)"></path></g><defs><mask id="SvgjsMask1314"><rect width="1440" height="560" fill="#ffffff"></rect></mask><linearGradient x1="84.72%" y1="139.29%" x2="15.28%" y2="-39.29%" gradientUnits="userSpaceOnUse" id="SvgjsLinearGradient1315"><stop stop-color="#0e2a47" offset="0"></stop><stop stop-color="rgba(145, 179, 214, 1)" offset="1"></stop></linearGradient></defs></svg>